<?xml version="1.0" encoding="UTF-8" standalone="no"?>
<!DOCTYPE svg PUBLIC "-//W3C//DTD SVG 1.1//EN" "http://www.w3.org/Graphics/SVG/1.1/DTD/svg11.dtd">
<svg xmlns="http://www.w3.org/2000/svg" version="1.1" viewBox="0.00 0.00 1107.00 408.00">
<g stroke-width="2.00" fill="none" stroke-linecap="butt">
<path stroke="#878787" vector-effect="non-scaling-stroke" d="
  M 615.46 264.53
  A 0.78 0.77 64.2 0 1 615.87 263.34
  Q 633.23 258.35 648.60 249.20
  Q 657.53 243.89 664.60 237.28
  Q 693.38 210.37 696.90 169.49
  C 699.84 135.42 691.96 104.29 666.20 80.66
  C 644.47 60.71 614.05 51.20 584.96 48.83
  Q 578.51 48.30 564.99 48.24
  Q 489.61 47.91 414.38 48.04
  A 0.70 0.69 -0.0 0 0 413.68 48.73
  L 413.68 102.50
  A 0.85 0.85 0.0 0 0 414.53 103.35
  Q 483.38 103.51 552.47 103.58
  C 576.16 103.61 604.83 104.87 622.25 123.58
  C 635.07 137.36 637.71 158.59 633.85 176.40
  C 630.96 189.78 621.09 201.03 609.98 208.35
  C 595.86 217.66 577.35 220.06 560.25 220.09
  Q 488.04 220.26 415.02 220.15
  A 1.34 1.34 0.0 0 0 413.68 221.49
  L 413.68 393.76
  A 0.58 0.58 0.0 0 0 414.26 394.34
  L 473.50 394.33
  A 1.33 1.32 90.0 0 0 474.82 393.00
  L 474.82 275.73
  A 1.41 1.40 -0.0 0 1 476.23 274.33
  L 549.90 274.33
  A 2.46 2.44 -17.5 0 1 551.90 275.36
  L 634.82 393.04
  A 3.05 3.05 0.0 0 0 637.31 394.33
  L 707.49 394.32
  A 0.36 0.36 0.0 0 0 707.79 393.75
  L 615.46 264.53"
/>
<path stroke="#878787" vector-effect="non-scaling-stroke" d="
  M 843.47 219.10
  Q 843.80 217.79 843.80 217.00
  Q 843.77 132.85 843.64 48.65
  A 0.65 0.65 0.0 0 0 842.99 48.00
  L 785.00 48.00
  A 1.00 1.00 0.0 0 0 784.00 49.00
  L 784.00 393.29
  A 1.04 1.04 0.0 0 0 785.04 394.33
  L 843.00 394.33
  A 0.83 0.82 -90.0 0 0 843.82 393.50
  L 843.82 313.93
  Q 843.82 312.60 844.72 311.63
  L 1088.93 48.96
  A 0.57 0.57 0.0 0 0 1088.51 48.00
  L 1010.74 48.00
  Q 1009.09 48.00 1007.93 49.19
  L 843.66 219.20
  Q 843.36 219.51 843.47 219.10"
/>
<path stroke="#878787" vector-effect="non-scaling-stroke" d="
  M 199.61 319.69
  Q 200.06 318.63 201.20 318.78
  C 220.86 321.35 245.28 319.43 261.66 308.15
  C 282.89 293.54 281.84 267.18 271.43 246.34
  Q 265.27 234.03 257.08 223.48
  A 1.59 1.58 -45.7 0 1 257.06 221.56
  C 270.13 204.02 284.06 177.93 276.07 155.52
  C 270.24 139.13 255.49 130.79 238.98 127.59
  Q 219.86 123.90 201.03 126.28
  A 2.00 1.99 74.9 0 1 198.94 125.07
  C 188.02 99.05 163.19 65.54 129.77 77.51
  C 110.25 84.50 94.58 106.53 87.44 124.89
  Q 86.84 126.43 85.20 126.24
  C 65.91 124.03 39.49 125.35 23.68 137.40
  C -4.99 159.26 11.88 199.80 29.76 221.71
  A 1.33 1.32 43.4 0 1 29.81 223.32
  Q 26.46 227.94 23.16 232.83
  Q 12.83 248.14 9.36 266.26
  C 0.31 313.52 52.80 322.90 86.41 318.92
  A 0.77 0.76 73.4 0 1 87.18 319.34
  Q 89.43 323.77 91.60 328.20
  Q 99.66 344.71 113.00 357.23
  C 126.34 369.77 143.69 372.78 160.51 365.85
  Q 166.39 363.43 169.89 360.38
  Q 189.58 343.21 199.61 319.69"
/>
<path stroke="#878787" vector-effect="non-scaling-stroke" d="
  M 1016.17 394.08
  A 0.72 0.72 0.0 0 0 1016.73 394.34
  L 1088.72 394.32
  A 0.72 0.72 0.0 0 0 1089.29 393.16
  L 971.80 243.20
  A 0.72 0.72 0.0 0 0 970.71 243.15
  L 929.96 287.41
  A 0.72 0.72 0.0 0 0 929.93 288.35
  L 1016.17 394.08"
/>
<path stroke="#878787" vector-effect="non-scaling-stroke" d="
  M 193.21 123.63
  C 185.02 105.07 166.86 80.15 144.14 79.72
  C 119.03 79.24 100.35 106.05 91.56 126.23
  Q 91.12 127.23 92.20 127.42
  Q 111.46 130.80 130.13 136.67
  A 0.92 0.91 33.8 0 0 131.01 136.50
  C 133.46 134.47 136.02 132.12 138.73 131.06
  C 145.81 128.30 150.09 132.01 155.11 136.56
  A 0.92 0.91 -32.9 0 0 156.00 136.75
  Q 174.48 130.81 193.58 127.42
  A 0.81 0.81 0.0 0 0 194.22 126.41
  Q 193.86 125.10 193.21 123.63"
/>
<path stroke="#878787" vector-effect="non-scaling-stroke" d="
  M 253.53 217.78
  C 267.36 200.56 282.81 168.68 266.44 148.06
  C 252.35 130.31 223.07 127.07 202.31 130.79
  A 0.77 0.77 0.0 0 0 201.72 131.82
  Q 208.51 149.55 212.34 168.16
  A 1.84 1.84 0.0 0 0 213.85 169.60
  Q 224.28 171.22 225.92 181.21
  C 226.32 183.63 225.34 186.56 225.02 189.17
  A 0.98 0.98 0.0 0 0 225.33 190.01
  Q 229.47 193.82 233.62 197.61
  Q 243.97 207.06 252.65 217.78
  A 0.57 0.57 0.0 0 0 253.53 217.78"
/>
<path stroke="#878787" vector-effect="non-scaling-stroke" d="
  M 61.69 188.91
  C 58.52 180.26 62.49 170.40 72.56 169.72
  A 1.52 1.52 0.0 0 0 73.94 168.51
  Q 77.73 149.56 84.76 131.57
  A 0.80 0.79 13.6 0 0 84.09 130.49
  C 63.95 128.32 34.53 129.87 20.38 147.43
  C 4.11 167.61 18.34 200.01 33.29 217.22
  Q 33.64 217.62 33.98 217.21
  Q 46.43 202.27 61.43 189.88
  A 0.88 0.87 60.3 0 0 61.69 188.91"
/>
<path stroke="#878787" vector-effect="non-scaling-stroke" d="
  M 124.56 149.08
  C 126.97 147.96 129.56 147.65 130.02 144.71
  Q 130.33 142.73 129.25 140.82
  A 1.17 1.17 0.0 0 0 128.51 140.26
  L 91.24 131.16
  A 1.40 1.40 0.0 0 0 89.60 132.02
  Q 83.14 148.89 79.18 166.68
  C 78.57 169.43 79.30 173.10 82.82 173.02
  Q 84.00 172.99 84.44 172.69
  Q 105.27 158.03 124.56 149.08"
/>
<path stroke="#878787" vector-effect="non-scaling-stroke" d="
  M 158.58 147.63
  C 173.45 154.55 187.52 162.81 201.26 171.76
  C 203.52 173.24 206.09 173.15 207.29 170.63
  Q 208.00 169.15 207.36 166.31
  Q 203.41 148.87 197.30 132.37
  A 1.05 1.05 0.0 0 0 196.18 131.69
  Q 177.04 134.16 158.84 140.65
  C 155.26 141.93 155.19 146.06 158.58 147.63"
/>
<path stroke="#878787" vector-effect="non-scaling-stroke" d="
  M 151.91 143.52
  A 8.59 8.59 0.0 0 0 143.32 134.93
  A 8.59 8.59 0.0 0 0 134.73 143.52
  A 8.59 8.59 0.0 0 0 143.32 152.11
  A 8.59 8.59 0.0 0 0 151.91 143.52"
/>
<path stroke="#878787" vector-effect="non-scaling-stroke" d="
  M 200.60 266.66
  C 197.22 258.57 201.98 249.99 210.61 248.64
  A 1.87 1.87 0.0 0 0 212.18 246.95
  Q 214.21 222.32 212.24 197.68
  Q 212.16 196.72 211.25 196.41
  C 204.05 193.98 199.04 190.09 199.77 181.74
  Q 199.97 179.47 200.09 177.07
  A 0.92 0.92 0.0 0 0 199.70 176.28
  Q 178.72 161.75 155.40 151.40
  Q 154.88 151.17 154.44 151.54
  C 145.93 158.66 140.60 159.17 132.18 151.46
  Q 131.80 151.11 131.34 151.33
  Q 108.08 162.09 86.81 176.42
  A 1.16 1.15 67.2 0 0 86.33 177.60
  C 87.52 183.35 87.47 188.42 83.10 192.62
  C 81.10 194.54 77.92 195.75 75.18 197.09
  A 1.11 1.10 79.9 0 0 74.56 197.98
  Q 72.14 222.59 74.55 247.18
  Q 74.60 247.67 75.05 247.88
  C 77.23 248.90 79.92 249.51 81.67 250.82
  Q 89.34 256.55 86.16 266.49
  A 1.48 1.48 0.0 0 0 86.74 268.17
  Q 108.00 282.51 131.36 293.08
  A 1.15 1.14 35.8 0 0 132.62 292.88
  Q 143.52 282.72 154.21 293.10
  A 0.72 0.71 54.8 0 0 155.00 293.24
  Q 178.78 282.84 200.16 268.13
  A 1.22 1.21 -28.5 0 0 200.60 266.66"
/>
<path stroke="#878787" vector-effect="non-scaling-stroke" d="
  M 221.50 183.07
  A 8.69 8.69 0.0 0 0 212.81 174.38
  A 8.69 8.69 0.0 0 0 204.12 183.07
  A 8.69 8.69 0.0 0 0 212.81 191.76
  A 8.69 8.69 0.0 0 0 221.50 183.07"
/>
<path stroke="#878787" vector-effect="non-scaling-stroke" d="
  M 82.37 183.28
  A 8.58 8.58 0.0 0 0 73.79 174.70
  A 8.58 8.58 0.0 0 0 65.21 183.28
  A 8.58 8.58 0.0 0 0 73.79 191.86
  A 8.58 8.58 0.0 0 0 82.37 183.28"
/>
<path stroke="#878787" vector-effect="non-scaling-stroke" d="
  M 70.00 198.25
  C 70.20 196.13 66.84 194.44 65.13 193.80
  Q 64.61 193.60 64.18 193.96
  Q 49.18 206.63 36.91 221.97
  A 0.78 0.78 0.0 0 0 36.92 222.96
  Q 48.16 236.49 61.20 248.37
  Q 63.50 250.47 64.89 250.88
  C 68.43 251.90 70.23 248.41 69.94 245.25
  Q 67.76 221.76 70.00 198.25"
/>
<path stroke="#878787" vector-effect="non-scaling-stroke" d="
  M 221.61 193.74
  L 217.11 195.80
  Q 216.60 196.03 216.65 196.60
  Q 218.70 220.83 216.79 245.06
  Q 216.61 247.33 216.99 248.40
  C 217.99 251.21 221.76 251.80 223.87 249.87
  Q 237.62 237.31 249.60 223.06
  A 0.95 0.94 -44.2 0 0 249.62 221.87
  Q 237.53 206.34 222.34 193.83
  A 0.69 0.67 51.6 0 0 221.61 193.74"
/>
<path stroke="#878787" vector-effect="non-scaling-stroke" d="
  M 21.82 298.93
  C 37.36 314.75 63.74 317.31 84.40 313.81
  A 0.40 0.39 74.5 0 0 84.70 313.27
  Q 77.62 294.97 73.86 275.71
  Q 73.77 275.22 73.29 275.09
  C 64.04 272.53 58.01 266.73 61.60 256.18
  A 1.71 1.71 0.0 0 0 61.08 254.33
  Q 46.33 242.02 34.06 227.25
  A 0.65 0.64 44.8 0 0 33.07 227.25
  C 18.76 244.68 2.48 279.24 21.82 298.93"
/>
<path stroke="#878787" vector-effect="non-scaling-stroke" d="
  M 202.68 313.95
  C 222.02 317.37 249.09 314.62 263.77 299.76
  C 283.65 279.65 268.29 245.53 253.50 227.48
  A 0.54 0.54 0.0 0 0 252.67 227.47
  Q 240.10 242.27 225.27 254.80
  A 0.95 0.94 -28.8 0 0 224.98 255.78
  C 227.41 263.79 223.98 275.21 214.01 275.03
  A 1.39 1.38 6.3 0 0 212.63 276.13
  Q 208.72 294.89 202.06 312.86
  A 0.82 0.81 -74.8 0 0 202.68 313.95"
/>
<path stroke="#878787" vector-effect="non-scaling-stroke" d="
  M 82.39 261.45
  A 8.58 8.58 0.0 0 0 73.81 252.87
  A 8.58 8.58 0.0 0 0 65.23 261.45
  A 8.58 8.58 0.0 0 0 73.81 270.03
  A 8.58 8.58 0.0 0 0 82.39 261.45"
/>
<path stroke="#878787" vector-effect="non-scaling-stroke" d="
  M 221.34 261.47
  A 8.57 8.57 0.0 0 0 212.77 252.90
  A 8.57 8.57 0.0 0 0 204.20 261.47
  A 8.57 8.57 0.0 0 0 212.77 270.04
  A 8.57 8.57 0.0 0 0 221.34 261.47"
/>
<path stroke="#878787" vector-effect="non-scaling-stroke" d="
  M 121.56 293.92
  Q 103.14 285.28 85.89 273.08
  C 82.54 270.71 78.05 272.13 79.01 276.74
  Q 82.88 295.32 89.62 312.86
  A 0.80 0.79 -13.8 0 0 90.47 313.37
  Q 110.05 310.93 128.61 304.20
  Q 129.12 304.01 129.38 303.55
  C 132.70 297.70 125.38 295.72 121.56 293.92"
/>
<path stroke="#878787" vector-effect="non-scaling-stroke" d="
  M 161.68 295.67
  C 159.19 296.76 156.25 297.66 156.16 300.76
  Q 156.07 303.51 159.23 304.56
  Q 177.11 310.51 195.93 313.54
  A 1.09 1.08 -74.7 0 0 197.11 312.86
  Q 204.26 294.49 207.96 275.12
  A 1.07 1.05 21.8 0 0 207.48 274.02
  L 203.83 271.76
  A 0.87 0.85 42.7 0 0 202.88 271.79
  Q 182.30 286.60 161.68 295.67"
/>
<path stroke="#878787" vector-effect="non-scaling-stroke" d="
  M 151.89 301.21
  A 8.59 8.59 0.0 0 0 143.30 292.62
  A 8.59 8.59 0.0 0 0 134.71 301.21
  A 8.59 8.59 0.0 0 0 143.30 309.80
  A 8.59 8.59 0.0 0 0 151.89 301.21"
/>
<path stroke="#878787" vector-effect="non-scaling-stroke" d="
  M 194.21 320.37
  Q 194.64 319.44 194.86 318.57
  A 0.77 0.76 -79.5 0 0 194.22 317.63
  Q 174.64 314.99 156.15 308.03
  Q 155.66 307.84 155.26 308.18
  C 153.97 309.27 152.89 310.83 151.73 311.67
  Q 144.11 317.18 136.05 312.33
  C 134.45 311.37 133.24 309.58 131.63 308.27
  A 1.02 1.01 -34.9 0 0 130.65 308.10
  Q 112.30 314.82 92.97 317.62
  A 0.68 0.67 -14.8 0 0 92.43 318.54
  C 99.46 336.09 112.84 355.23 130.80 362.44
  C 159.33 373.88 184.03 342.75 194.21 320.37"
/>
<path stroke="#878787" vector-effect="non-scaling-stroke" d="
  M 143.4125 175.8194
  A 5.25 2.79 89.1 0 0 146.1197 170.5262
  A 5.25 2.79 89.1 0 0 143.2475 165.3206
  A 5.25 2.79 89.1 0 0 140.5403 170.6138
  A 5.25 2.79 89.1 0 0 143.4125 175.8194"
/>
<path stroke="#878787" vector-effect="non-scaling-stroke" d="
  M 145.80 192.35
  A 2.12 2.12 0.0 0 0 143.68 190.23
  L 143.02 190.23
  A 2.12 2.12 0.0 0 0 140.90 192.35
  L 140.90 197.87
  A 2.12 2.12 0.0 0 0 143.02 199.99
  L 143.68 199.99
  A 2.12 2.12 0.0 0 0 145.80 197.87
  L 145.80 192.35"
/>
<path stroke="#878787" vector-effect="non-scaling-stroke" d="
  M 101.6813 198.8002
  A 2.28 2.28 0.0 0 0 100.8413 195.6872
  L 96.3508 193.1050
  A 2.28 2.28 0.0 0 0 93.2377 193.9450
  L 92.9187 194.4998
  A 2.28 2.28 0.0 0 0 93.7587 197.6128
  L 98.2492 200.1950
  A 2.28 2.28 0.0 0 0 101.3623 199.3550
  L 101.6813 198.8002"
/>
<path stroke="#878787" vector-effect="non-scaling-stroke" d="
  M 192.5151 194.1822
  A 5.15 2.87 -31.2 0 0 186.6233 194.3951
  A 5.15 2.87 -31.2 0 0 183.7049 199.5178
  A 5.15 2.87 -31.2 0 0 189.5967 199.3049
  A 5.15 2.87 -31.2 0 0 192.5151 194.1822"
/>
<path stroke="#878787" vector-effect="non-scaling-stroke" d="
  M 123.1190 210.8243
  A 2.44 2.44 0.0 0 0 122.2550 207.4835
  L 118.0848 205.0271
  A 2.44 2.44 0.0 0 0 114.7440 205.8910
  L 114.5410 206.2357
  A 2.44 2.44 0.0 0 0 115.4050 209.5765
  L 119.5752 212.0329
  A 2.44 2.44 0.0 0 0 122.9160 211.1690
  L 123.1190 210.8243"
/>
<path stroke="#878787" vector-effect="non-scaling-stroke" d="
  M 171.0782 206.3997
  A 5.11 2.87 -31.9 0 0 165.2234 206.6635
  A 5.11 2.87 -31.9 0 0 162.4018 211.8003
  A 5.11 2.87 -31.9 0 0 168.2566 211.5365
  A 5.11 2.87 -31.9 0 0 171.0782 206.3997"
/>
<path stroke="#878787" vector-effect="non-scaling-stroke" d="
  M 156.85 222.26
  A 13.56 13.56 0.0 0 0 143.29 208.70
  A 13.56 13.56 0.0 0 0 129.73 222.26
  A 13.56 13.56 0.0 0 0 143.29 235.82
  A 13.56 13.56 0.0 0 0 156.85 222.26"
/>
<path stroke="#878787" vector-effect="non-scaling-stroke" d="
  M 171.3543 238.1084
  A 5.10 2.95 30.5 0 0 168.4572 232.9782
  A 5.10 2.95 30.5 0 0 162.5657 232.9316
  A 5.10 2.95 30.5 0 0 165.4628 238.0618
  A 5.10 2.95 30.5 0 0 171.3543 238.1084"
/>
<path stroke="#878787" vector-effect="non-scaling-stroke" d="
  M 123.0134 233.7127
  A 2.30 2.30 0.0 0 0 119.8775 232.8489
  L 115.3039 235.4471
  A 2.30 2.30 0.0 0 0 114.4401 238.5830
  L 114.7266 239.0873
  A 2.30 2.30 0.0 0 0 117.8625 239.9511
  L 122.4361 237.3529
  A 2.30 2.30 0.0 0 0 123.2999 234.2170
  L 123.0134 233.7127"
/>
<path stroke="#878787" vector-effect="non-scaling-stroke" d="
  M 192.7180 250.4117
  A 5.25 2.86 32.9 0 0 189.8635 245.1587
  A 5.25 2.86 32.9 0 0 183.9020 244.7083
  A 5.25 2.86 32.9 0 0 186.7565 249.9613
  A 5.25 2.86 32.9 0 0 192.7180 250.4117"
/>
<path stroke="#878787" vector-effect="non-scaling-stroke" d="
  M 101.6069 245.5195
  A 2.33 2.33 0.0 0 0 98.4028 244.7503
  L 94.0202 247.4360
  A 2.33 2.33 0.0 0 0 93.2510 250.6400
  L 93.5331 251.1005
  A 2.33 2.33 0.0 0 0 96.7372 251.8697
  L 101.1198 249.1840
  A 2.33 2.33 0.0 0 0 101.8890 245.9800
  L 101.6069 245.5195"
/>
<path stroke="#878787" vector-effect="non-scaling-stroke" d="
  M 145.8246 246.7843
  A 2.32 2.32 0.0 0 0 143.5086 244.4603
  L 143.1886 244.4597
  A 2.32 2.32 0.0 0 0 140.8646 246.7757
  L 140.8554 251.9957
  A 2.32 2.32 0.0 0 0 143.1714 254.3197
  L 143.4914 254.3203
  A 2.32 2.32 0.0 0 0 145.8154 252.0043
  L 145.8246 246.7843"
/>
<path stroke="#878787" vector-effect="non-scaling-stroke" d="
  M 145.7138 271.0297
  A 1.92 1.92 0.0 0 0 143.7312 269.1744
  L 142.6318 269.2109
  A 1.92 1.92 0.0 0 0 140.7765 271.1935
  L 140.9662 276.9103
  A 1.92 1.92 0.0 0 0 142.9488 278.7656
  L 144.0482 278.7291
  A 1.92 1.92 0.0 0 0 145.9035 276.7465
  L 145.7138 271.0297"
/>
<path stroke="#878787" vector-effect="non-scaling-stroke" d="
  M 152.02 222.35
  A 8.72 8.72 0.0 0 0 143.30 213.63
  A 8.72 8.72 0.0 0 0 134.58 222.35
  A 8.72 8.72 0.0 0 0 143.30 231.07
  A 8.72 8.72 0.0 0 0 152.02 222.35"
/>
</g>
<path fill="#fcfcfc" d="
  M 0.00 0.00
  L 1107.00 0.00
  L 1107.00 408.00
  L 0.00 408.00
  L 0.00 0.00
  Z
  M 615.46 264.53
  A 0.78 0.77 64.2 0 1 615.87 263.34
  Q 633.23 258.35 648.60 249.20
  Q 657.53 243.89 664.60 237.28
  Q 693.38 210.37 696.90 169.49
  C 699.84 135.42 691.96 104.29 666.20 80.66
  C 644.47 60.71 614.05 51.20 584.96 48.83
  Q 578.51 48.30 564.99 48.24
  Q 489.61 47.91 414.38 48.04
  A 0.70 0.69 -0.0 0 0 413.68 48.73
  L 413.68 102.50
  A 0.85 0.85 0.0 0 0 414.53 103.35
  Q 483.38 103.51 552.47 103.58
  C 576.16 103.61 604.83 104.87 622.25 123.58
  C 635.07 137.36 637.71 158.59 633.85 176.40
  C 630.96 189.78 621.09 201.03 609.98 208.35
  C 595.86 217.66 577.35 220.06 560.25 220.09
  Q 488.04 220.26 415.02 220.15
  A 1.34 1.34 0.0 0 0 413.68 221.49
  L 413.68 393.76
  A 0.58 0.58 0.0 0 0 414.26 394.34
  L 473.50 394.33
  A 1.33 1.32 90.0 0 0 474.82 393.00
  L 474.82 275.73
  A 1.41 1.40 -0.0 0 1 476.23 274.33
  L 549.90 274.33
  A 2.46 2.44 -17.5 0 1 551.90 275.36
  L 634.82 393.04
  A 3.05 3.05 0.0 0 0 637.31 394.33
  L 707.49 394.32
  A 0.36 0.36 0.0 0 0 707.79 393.75
  L 615.46 264.53
  Z
  M 843.47 219.10
  Q 843.80 217.79 843.80 217.00
  Q 843.77 132.85 843.64 48.65
  A 0.65 0.65 0.0 0 0 842.99 48.00
  L 785.00 48.00
  A 1.00 1.00 0.0 0 0 784.00 49.00
  L 784.00 393.29
  A 1.04 1.04 0.0 0 0 785.04 394.33
  L 843.00 394.33
  A 0.83 0.82 -90.0 0 0 843.82 393.50
  L 843.82 313.93
  Q 843.82 312.60 844.72 311.63
  L 1088.93 48.96
  A 0.57 0.57 0.0 0 0 1088.51 48.00
  L 1010.74 48.00
  Q 1009.09 48.00 1007.93 49.19
  L 843.66 219.20
  Q 843.36 219.51 843.47 219.10
  Z
  M 199.61 319.69
  Q 200.06 318.63 201.20 318.78
  C 220.86 321.35 245.28 319.43 261.66 308.15
  C 282.89 293.54 281.84 267.18 271.43 246.34
  Q 265.27 234.03 257.08 223.48
  A 1.59 1.58 -45.7 0 1 257.06 221.56
  C 270.13 204.02 284.06 177.93 276.07 155.52
  C 270.24 139.13 255.49 130.79 238.98 127.59
  Q 219.86 123.90 201.03 126.28
  A 2.00 1.99 74.9 0 1 198.94 125.07
  C 188.02 99.05 163.19 65.54 129.77 77.51
  C 110.25 84.50 94.58 106.53 87.44 124.89
  Q 86.84 126.43 85.20 126.24
  C 65.91 124.03 39.49 125.35 23.68 137.40
  C -4.99 159.26 11.88 199.80 29.76 221.71
  A 1.33 1.32 43.4 0 1 29.81 223.32
  Q 26.46 227.94 23.16 232.83
  Q 12.83 248.14 9.36 266.26
  C 0.31 313.52 52.80 322.90 86.41 318.92
  A 0.77 0.76 73.4 0 1 87.18 319.34
  Q 89.43 323.77 91.60 328.20
  Q 99.66 344.71 113.00 357.23
  C 126.34 369.77 143.69 372.78 160.51 365.85
  Q 166.39 363.43 169.89 360.38
  Q 189.58 343.21 199.61 319.69
  Z
  M 1016.17 394.08
  A 0.72 0.72 0.0 0 0 1016.73 394.34
  L 1088.72 394.32
  A 0.72 0.72 0.0 0 0 1089.29 393.16
  L 971.80 243.20
  A 0.72 0.72 0.0 0 0 970.71 243.15
  L 929.96 287.41
  A 0.72 0.72 0.0 0 0 929.93 288.35
  L 1016.17 394.08
  Z"
/>
<path fill="#111111" d="
  M 615.46 264.53
  L 707.79 393.75
  A 0.36 0.36 0.0 0 1 707.49 394.32
  L 637.31 394.33
  A 3.05 3.05 0.0 0 1 634.82 393.04
  L 551.90 275.36
  A 2.46 2.44 -17.5 0 0 549.90 274.33
  L 476.23 274.33
  A 1.41 1.40 -0.0 0 0 474.82 275.73
  L 474.82 393.00
  A 1.33 1.32 90.0 0 1 473.50 394.33
  L 414.26 394.34
  A 0.58 0.58 0.0 0 1 413.68 393.76
  L 413.68 221.49
  A 1.34 1.34 0.0 0 1 415.02 220.15
  Q 488.04 220.26 560.25 220.09
  C 577.35 220.06 595.86 217.66 609.98 208.35
  C 621.09 201.03 630.96 189.78 633.85 176.40
  C 637.71 158.59 635.07 137.36 622.25 123.58
  C 604.83 104.87 576.16 103.61 552.47 103.58
  Q 483.38 103.51 414.53 103.35
  A 0.85 0.85 0.0 0 1 413.68 102.50
  L 413.68 48.73
  A 0.70 0.69 -0.0 0 1 414.38 48.04
  Q 489.61 47.91 564.99 48.24
  Q 578.51 48.30 584.96 48.83
  C 614.05 51.20 644.47 60.71 666.20 80.66
  C 691.96 104.29 699.84 135.42 696.90 169.49
  Q 693.38 210.37 664.60 237.28
  Q 657.53 243.89 648.60 249.20
  Q 633.23 258.35 615.87 263.34
  A 0.78 0.77 64.2 0 0 615.46 264.53
  Z"
/>
<path fill="#111111" d="
  M 843.66 219.20
  L 1007.93 49.19
  Q 1009.09 48.00 1010.74 48.00
  L 1088.51 48.00
  A 0.57 0.57 0.0 0 1 1088.93 48.96
  L 844.72 311.63
  Q 843.82 312.60 843.82 313.93
  L 843.82 393.50
  A 0.83 0.82 -90.0 0 1 843.00 394.33
  L 785.04 394.33
  A 1.04 1.04 0.0 0 1 784.00 393.29
  L 784.00 49.00
  A 1.00 1.00 0.0 0 1 785.00 48.00
  L 842.99 48.00
  A 0.65 0.65 0.0 0 1 843.64 48.65
  Q 843.77 132.85 843.80 217.00
  Q 843.80 217.79 843.47 219.10
  Q 843.36 219.51 843.66 219.20
  Z"
/>
<path fill="#111111" d="
  M 199.61 319.69
  Q 189.58 343.21 169.89 360.38
  Q 166.39 363.43 160.51 365.85
  C 143.69 372.78 126.34 369.77 113.00 357.23
  Q 99.66 344.71 91.60 328.20
  Q 89.43 323.77 87.18 319.34
  A 0.77 0.76 73.4 0 0 86.41 318.92
  C 52.80 322.90 0.31 313.52 9.36 266.26
  Q 12.83 248.14 23.16 232.83
  Q 26.46 227.94 29.81 223.32
  A 1.33 1.32 43.4 0 0 29.76 221.71
  C 11.88 199.80 -4.99 159.26 23.68 137.40
  C 39.49 125.35 65.91 124.03 85.20 126.24
  Q 86.84 126.43 87.44 124.89
  C 94.58 106.53 110.25 84.50 129.77 77.51
  C 163.19 65.54 188.02 99.05 198.94 125.07
  A 2.00 1.99 74.9 0 0 201.03 126.28
  Q 219.86 123.90 238.98 127.59
  C 255.49 130.79 270.24 139.13 276.07 155.52
  C 284.06 177.93 270.13 204.02 257.06 221.56
  A 1.59 1.58 -45.7 0 0 257.08 223.48
  Q 265.27 234.03 271.43 246.34
  C 281.84 267.18 282.89 293.54 261.66 308.15
  C 245.28 319.43 220.86 321.35 201.20 318.78
  Q 200.06 318.63 199.61 319.69
  Z
  M 193.21 123.63
  C 185.02 105.07 166.86 80.15 144.14 79.72
  C 119.03 79.24 100.35 106.05 91.56 126.23
  Q 91.12 127.23 92.20 127.42
  Q 111.46 130.80 130.13 136.67
  A 0.92 0.91 33.8 0 0 131.01 136.50
  C 133.46 134.47 136.02 132.12 138.73 131.06
  C 145.81 128.30 150.09 132.01 155.11 136.56
  A 0.92 0.91 -32.9 0 0 156.00 136.75
  Q 174.48 130.81 193.58 127.42
  A 0.81 0.81 0.0 0 0 194.22 126.41
  Q 193.86 125.10 193.21 123.63
  Z
  M 253.53 217.78
  C 267.36 200.56 282.81 168.68 266.44 148.06
  C 252.35 130.31 223.07 127.07 202.31 130.79
  A 0.77 0.77 0.0 0 0 201.72 131.82
  Q 208.51 149.55 212.34 168.16
  A 1.84 1.84 0.0 0 0 213.85 169.60
  Q 224.28 171.22 225.92 181.21
  C 226.32 183.63 225.34 186.56 225.02 189.17
  A 0.98 0.98 0.0 0 0 225.33 190.01
  Q 229.47 193.82 233.62 197.61
  Q 243.97 207.06 252.65 217.78
  A 0.57 0.57 0.0 0 0 253.53 217.78
  Z
  M 61.69 188.91
  C 58.52 180.26 62.49 170.40 72.56 169.72
  A 1.52 1.52 0.0 0 0 73.94 168.51
  Q 77.73 149.56 84.76 131.57
  A 0.80 0.79 13.6 0 0 84.09 130.49
  C 63.95 128.32 34.53 129.87 20.38 147.43
  C 4.11 167.61 18.34 200.01 33.29 217.22
  Q 33.64 217.62 33.98 217.21
  Q 46.43 202.27 61.43 189.88
  A 0.88 0.87 60.3 0 0 61.69 188.91
  Z
  M 124.56 149.08
  C 126.97 147.96 129.56 147.65 130.02 144.71
  Q 130.33 142.73 129.25 140.82
  A 1.17 1.17 0.0 0 0 128.51 140.26
  L 91.24 131.16
  A 1.40 1.40 0.0 0 0 89.60 132.02
  Q 83.14 148.89 79.18 166.68
  C 78.57 169.43 79.30 173.10 82.82 173.02
  Q 84.00 172.99 84.44 172.69
  Q 105.27 158.03 124.56 149.08
  Z
  M 158.58 147.63
  C 173.45 154.55 187.52 162.81 201.26 171.76
  C 203.52 173.24 206.09 173.15 207.29 170.63
  Q 208.00 169.15 207.36 166.31
  Q 203.41 148.87 197.30 132.37
  A 1.05 1.05 0.0 0 0 196.18 131.69
  Q 177.04 134.16 158.84 140.65
  C 155.26 141.93 155.19 146.06 158.58 147.63
  Z
  M 151.91 143.52
  A 8.59 8.59 0.0 0 0 143.32 134.93
  A 8.59 8.59 0.0 0 0 134.73 143.52
  A 8.59 8.59 0.0 0 0 143.32 152.11
  A 8.59 8.59 0.0 0 0 151.91 143.52
  Z
  M 200.60 266.66
  C 197.22 258.57 201.98 249.99 210.61 248.64
  A 1.87 1.87 0.0 0 0 212.18 246.95
  Q 214.21 222.32 212.24 197.68
  Q 212.16 196.72 211.25 196.41
  C 204.05 193.98 199.04 190.09 199.77 181.74
  Q 199.97 179.47 200.09 177.07
  A 0.92 0.92 0.0 0 0 199.70 176.28
  Q 178.72 161.75 155.40 151.40
  Q 154.88 151.17 154.44 151.54
  C 145.93 158.66 140.60 159.17 132.18 151.46
  Q 131.80 151.11 131.34 151.33
  Q 108.08 162.09 86.81 176.42
  A 1.16 1.15 67.2 0 0 86.33 177.60
  C 87.52 183.35 87.47 188.42 83.10 192.62
  C 81.10 194.54 77.92 195.75 75.18 197.09
  A 1.11 1.10 79.9 0 0 74.56 197.98
  Q 72.14 222.59 74.55 247.18
  Q 74.60 247.67 75.05 247.88
  C 77.23 248.90 79.92 249.51 81.67 250.82
  Q 89.34 256.55 86.16 266.49
  A 1.48 1.48 0.0 0 0 86.74 268.17
  Q 108.00 282.51 131.36 293.08
  A 1.15 1.14 35.8 0 0 132.62 292.88
  Q 143.52 282.72 154.21 293.10
  A 0.72 0.71 54.8 0 0 155.00 293.24
  Q 178.78 282.84 200.16 268.13
  A 1.22 1.21 -28.5 0 0 200.60 266.66
  Z
  M 221.50 183.07
  A 8.69 8.69 0.0 0 0 212.81 174.38
  A 8.69 8.69 0.0 0 0 204.12 183.07
  A 8.69 8.69 0.0 0 0 212.81 191.76
  A 8.69 8.69 0.0 0 0 221.50 183.07
  Z
  M 82.37 183.28
  A 8.58 8.58 0.0 0 0 73.79 174.70
  A 8.58 8.58 0.0 0 0 65.21 183.28
  A 8.58 8.58 0.0 0 0 73.79 191.86
  A 8.58 8.58 0.0 0 0 82.37 183.28
  Z
  M 70.00 198.25
  C 70.20 196.13 66.84 194.44 65.13 193.80
  Q 64.61 193.60 64.18 193.96
  Q 49.18 206.63 36.91 221.97
  A 0.78 0.78 0.0 0 0 36.92 222.96
  Q 48.16 236.49 61.20 248.37
  Q 63.50 250.47 64.89 250.88
  C 68.43 251.90 70.23 248.41 69.94 245.25
  Q 67.76 221.76 70.00 198.25
  Z
  M 221.61 193.74
  L 217.11 195.80
  Q 216.60 196.03 216.65 196.60
  Q 218.70 220.83 216.79 245.06
  Q 216.61 247.33 216.99 248.40
  C 217.99 251.21 221.76 251.80 223.87 249.87
  Q 237.62 237.31 249.60 223.06
  A 0.95 0.94 -44.2 0 0 249.62 221.87
  Q 237.53 206.34 222.34 193.83
  A 0.69 0.67 51.6 0 0 221.61 193.74
  Z
  M 21.82 298.93
  C 37.36 314.75 63.74 317.31 84.40 313.81
  A 0.40 0.39 74.5 0 0 84.70 313.27
  Q 77.62 294.97 73.86 275.71
  Q 73.77 275.22 73.29 275.09
  C 64.04 272.53 58.01 266.73 61.60 256.18
  A 1.71 1.71 0.0 0 0 61.08 254.33
  Q 46.33 242.02 34.06 227.25
  A 0.65 0.64 44.8 0 0 33.07 227.25
  C 18.76 244.68 2.48 279.24 21.82 298.93
  Z
  M 202.68 313.95
  C 222.02 317.37 249.09 314.62 263.77 299.76
  C 283.65 279.65 268.29 245.53 253.50 227.48
  A 0.54 0.54 0.0 0 0 252.67 227.47
  Q 240.10 242.27 225.27 254.80
  A 0.95 0.94 -28.8 0 0 224.98 255.78
  C 227.41 263.79 223.98 275.21 214.01 275.03
  A 1.39 1.38 6.3 0 0 212.63 276.13
  Q 208.72 294.89 202.06 312.86
  A 0.82 0.81 -74.8 0 0 202.68 313.95
  Z
  M 82.39 261.45
  A 8.58 8.58 0.0 0 0 73.81 252.87
  A 8.58 8.58 0.0 0 0 65.23 261.45
  A 8.58 8.58 0.0 0 0 73.81 270.03
  A 8.58 8.58 0.0 0 0 82.39 261.45
  Z
  M 221.34 261.47
  A 8.57 8.57 0.0 0 0 212.77 252.90
  A 8.57 8.57 0.0 0 0 204.20 261.47
  A 8.57 8.57 0.0 0 0 212.77 270.04
  A 8.57 8.57 0.0 0 0 221.34 261.47
  Z
  M 121.56 293.92
  Q 103.14 285.28 85.89 273.08
  C 82.54 270.71 78.05 272.13 79.01 276.74
  Q 82.88 295.32 89.62 312.86
  A 0.80 0.79 -13.8 0 0 90.47 313.37
  Q 110.05 310.93 128.61 304.20
  Q 129.12 304.01 129.38 303.55
  C 132.70 297.70 125.38 295.72 121.56 293.92
  Z
  M 161.68 295.67
  C 159.19 296.76 156.25 297.66 156.16 300.76
  Q 156.07 303.51 159.23 304.56
  Q 177.11 310.51 195.93 313.54
  A 1.09 1.08 -74.7 0 0 197.11 312.86
  Q 204.26 294.49 207.96 275.12
  A 1.07 1.05 21.8 0 0 207.48 274.02
  L 203.83 271.76
  A 0.87 0.85 42.7 0 0 202.88 271.79
  Q 182.30 286.60 161.68 295.67
  Z
  M 151.89 301.21
  A 8.59 8.59 0.0 0 0 143.30 292.62
  A 8.59 8.59 0.0 0 0 134.71 301.21
  A 8.59 8.59 0.0 0 0 143.30 309.80
  A 8.59 8.59 0.0 0 0 151.89 301.21
  Z
  M 194.21 320.37
  Q 194.64 319.44 194.86 318.57
  A 0.77 0.76 -79.5 0 0 194.22 317.63
  Q 174.64 314.99 156.15 308.03
  Q 155.66 307.84 155.26 308.18
  C 153.97 309.27 152.89 310.83 151.73 311.67
  Q 144.11 317.18 136.05 312.33
  C 134.45 311.37 133.24 309.58 131.63 308.27
  A 1.02 1.01 -34.9 0 0 130.65 308.10
  Q 112.30 314.82 92.97 317.62
  A 0.68 0.67 -14.8 0 0 92.43 318.54
  C 99.46 336.09 112.84 355.23 130.80 362.44
  C 159.33 373.88 184.03 342.75 194.21 320.37
  Z"
/>
<path fill="#fcfcfc" d="
  M 193.21 123.63
  Q 193.86 125.10 194.22 126.41
  A 0.81 0.81 0.0 0 1 193.58 127.42
  Q 174.48 130.81 156.00 136.75
  A 0.92 0.91 -32.9 0 1 155.11 136.56
  C 150.09 132.01 145.81 128.30 138.73 131.06
  C 136.02 132.12 133.46 134.47 131.01 136.50
  A 0.92 0.91 33.8 0 1 130.13 136.67
  Q 111.46 130.80 92.20 127.42
  Q 91.12 127.23 91.56 126.23
  C 100.35 106.05 119.03 79.24 144.14 79.72
  C 166.86 80.15 185.02 105.07 193.21 123.63
  Z"
/>
<path fill="#fcfcfc" d="
  M 266.44 148.06
  C 282.81 168.68 267.36 200.56 253.53 217.78
  A 0.57 0.57 0.0 0 1 252.65 217.78
  Q 243.97 207.06 233.62 197.61
  Q 229.47 193.82 225.33 190.01
  A 0.98 0.98 0.0 0 1 225.02 189.17
  C 225.34 186.56 226.32 183.63 225.92 181.21
  Q 224.28 171.22 213.85 169.60
  A 1.84 1.84 0.0 0 1 212.34 168.16
  Q 208.51 149.55 201.72 131.82
  A 0.77 0.77 0.0 0 1 202.31 130.79
  C 223.07 127.07 252.35 130.31 266.44 148.06
  Z"
/>
<path fill="#fcfcfc" d="
  M 72.56 169.72
  C 62.49 170.40 58.52 180.26 61.69 188.91
  A 0.88 0.87 60.3 0 1 61.43 189.88
  Q 46.43 202.27 33.98 217.21
  Q 33.64 217.62 33.29 217.22
  C 18.34 200.01 4.11 167.61 20.38 147.43
  C 34.53 129.87 63.95 128.32 84.09 130.49
  A 0.80 0.79 13.6 0 1 84.76 131.57
  Q 77.73 149.56 73.94 168.51
  A 1.52 1.52 0.0 0 1 72.56 169.72
  Z"
/>
<path fill="#fcfcfc" d="
  M 124.56 149.08
  Q 105.27 158.03 84.44 172.69
  Q 84.00 172.99 82.82 173.02
  C 79.30 173.10 78.57 169.43 79.18 166.68
  Q 83.14 148.89 89.60 132.02
  A 1.40 1.40 0.0 0 1 91.24 131.16
  L 128.51 140.26
  A 1.17 1.17 0.0 0 1 129.25 140.82
  Q 130.33 142.73 130.02 144.71
  C 129.56 147.65 126.97 147.96 124.56 149.08
  Z"
/>
<path fill="#fcfcfc" d="
  M 201.26 171.76
  C 187.52 162.81 173.45 154.55 158.58 147.63
  C 155.19 146.06 155.26 141.93 158.84 140.65
  Q 177.04 134.16 196.18 131.69
  A 1.05 1.05 0.0 0 1 197.30 132.37
  Q 203.41 148.87 207.36 166.31
  Q 208.00 169.15 207.29 170.63
  C 206.09 173.15 203.52 173.24 201.26 171.76
  Z"
/>
<circle fill="#fcfcfc" cx="143.32" cy="143.52" r="8.59"/>
<path fill="#fcfcfc" d="
  M 210.61 248.64
  C 201.98 249.99 197.22 258.57 200.60 266.66
  A 1.22 1.21 -28.5 0 1 200.16 268.13
  Q 178.78 282.84 155.00 293.24
  A 0.72 0.71 54.8 0 1 154.21 293.10
  Q 143.52 282.72 132.62 292.88
  A 1.15 1.14 35.8 0 1 131.36 293.08
  Q 108.00 282.51 86.74 268.17
  A 1.48 1.48 0.0 0 1 86.16 266.49
  Q 89.34 256.55 81.67 250.82
  C 79.92 249.51 77.23 248.90 75.05 247.88
  Q 74.60 247.67 74.55 247.18
  Q 72.14 222.59 74.56 197.98
  A 1.11 1.10 79.9 0 1 75.18 197.09
  C 77.92 195.75 81.10 194.54 83.10 192.62
  C 87.47 188.42 87.52 183.35 86.33 177.60
  A 1.16 1.15 67.2 0 1 86.81 176.42
  Q 108.08 162.09 131.34 151.33
  Q 131.80 151.11 132.18 151.46
  C 140.60 159.17 145.93 158.66 154.44 151.54
  Q 154.88 151.17 155.40 151.40
  Q 178.72 161.75 199.70 176.28
  A 0.92 0.92 0.0 0 1 200.09 177.07
  Q 199.97 179.47 199.77 181.74
  C 199.04 190.09 204.05 193.98 211.25 196.41
  Q 212.16 196.72 212.24 197.68
  Q 214.21 222.32 212.18 246.95
  A 1.87 1.87 0.0 0 1 210.61 248.64
  Z
  M 143.4125 175.8194
  A 5.25 2.79 89.1 0 0 146.1197 170.5262
  A 5.25 2.79 89.1 0 0 143.2475 165.3206
  A 5.25 2.79 89.1 0 0 140.5403 170.6138
  A 5.25 2.79 89.1 0 0 143.4125 175.8194
  Z
  M 145.80 192.35
  A 2.12 2.12 0.0 0 0 143.68 190.23
  L 143.02 190.23
  A 2.12 2.12 0.0 0 0 140.90 192.35
  L 140.90 197.87
  A 2.12 2.12 0.0 0 0 143.02 199.99
  L 143.68 199.99
  A 2.12 2.12 0.0 0 0 145.80 197.87
  L 145.80 192.35
  Z
  M 101.6813 198.8002
  A 2.28 2.28 0.0 0 0 100.8413 195.6872
  L 96.3508 193.1050
  A 2.28 2.28 0.0 0 0 93.2377 193.9450
  L 92.9187 194.4998
  A 2.28 2.28 0.0 0 0 93.7587 197.6128
  L 98.2492 200.1950
  A 2.28 2.28 0.0 0 0 101.3623 199.3550
  L 101.6813 198.8002
  Z
  M 192.5151 194.1822
  A 5.15 2.87 -31.2 0 0 186.6233 194.3951
  A 5.15 2.87 -31.2 0 0 183.7049 199.5178
  A 5.15 2.87 -31.2 0 0 189.5967 199.3049
  A 5.15 2.87 -31.2 0 0 192.5151 194.1822
  Z
  M 123.1190 210.8243
  A 2.44 2.44 0.0 0 0 122.2550 207.4835
  L 118.0848 205.0271
  A 2.44 2.44 0.0 0 0 114.7440 205.8910
  L 114.5410 206.2357
  A 2.44 2.44 0.0 0 0 115.4050 209.5765
  L 119.5752 212.0329
  A 2.44 2.44 0.0 0 0 122.9160 211.1690
  L 123.1190 210.8243
  Z
  M 171.0782 206.3997
  A 5.11 2.87 -31.9 0 0 165.2234 206.6635
  A 5.11 2.87 -31.9 0 0 162.4018 211.8003
  A 5.11 2.87 -31.9 0 0 168.2566 211.5365
  A 5.11 2.87 -31.9 0 0 171.0782 206.3997
  Z
  M 156.85 222.26
  A 13.56 13.56 0.0 0 0 143.29 208.70
  A 13.56 13.56 0.0 0 0 129.73 222.26
  A 13.56 13.56 0.0 0 0 143.29 235.82
  A 13.56 13.56 0.0 0 0 156.85 222.26
  Z
  M 171.3543 238.1084
  A 5.10 2.95 30.5 0 0 168.4572 232.9782
  A 5.10 2.95 30.5 0 0 162.5657 232.9316
  A 5.10 2.95 30.5 0 0 165.4628 238.0618
  A 5.10 2.95 30.5 0 0 171.3543 238.1084
  Z
  M 123.0134 233.7127
  A 2.30 2.30 0.0 0 0 119.8775 232.8489
  L 115.3039 235.4471
  A 2.30 2.30 0.0 0 0 114.4401 238.5830
  L 114.7266 239.0873
  A 2.30 2.30 0.0 0 0 117.8625 239.9511
  L 122.4361 237.3529
  A 2.30 2.30 0.0 0 0 123.2999 234.2170
  L 123.0134 233.7127
  Z
  M 192.7180 250.4117
  A 5.25 2.86 32.9 0 0 189.8635 245.1587
  A 5.25 2.86 32.9 0 0 183.9020 244.7083
  A 5.25 2.86 32.9 0 0 186.7565 249.9613
  A 5.25 2.86 32.9 0 0 192.7180 250.4117
  Z
  M 101.6069 245.5195
  A 2.33 2.33 0.0 0 0 98.4028 244.7503
  L 94.0202 247.4360
  A 2.33 2.33 0.0 0 0 93.2510 250.6400
  L 93.5331 251.1005
  A 2.33 2.33 0.0 0 0 96.7372 251.8697
  L 101.1198 249.1840
  A 2.33 2.33 0.0 0 0 101.8890 245.9800
  L 101.6069 245.5195
  Z
  M 145.8246 246.7843
  A 2.32 2.32 0.0 0 0 143.5086 244.4603
  L 143.1886 244.4597
  A 2.32 2.32 0.0 0 0 140.8646 246.7757
  L 140.8554 251.9957
  A 2.32 2.32 0.0 0 0 143.1714 254.3197
  L 143.4914 254.3203
  A 2.32 2.32 0.0 0 0 145.8154 252.0043
  L 145.8246 246.7843
  Z
  M 145.7138 271.0297
  A 1.92 1.92 0.0 0 0 143.7312 269.1744
  L 142.6318 269.2109
  A 1.92 1.92 0.0 0 0 140.7765 271.1935
  L 140.9662 276.9103
  A 1.92 1.92 0.0 0 0 142.9488 278.7656
  L 144.0482 278.7291
  A 1.92 1.92 0.0 0 0 145.9035 276.7465
  L 145.7138 271.0297
  Z"
/>
<ellipse fill="#111111" cx="0.00" cy="0.00" transform="translate(143.33,170.57) rotate(89.1)" rx="5.25" ry="2.79"/>
<circle fill="#fcfcfc" cx="212.81" cy="183.07" r="8.69"/>
<circle fill="#fcfcfc" cx="73.79" cy="183.28" r="8.58"/>
<rect fill="#111111" x="140.90" y="190.23" width="4.90" height="9.76" rx="2.12"/>
<rect fill="#111111" x="-4.87" y="-2.60" transform="translate(97.30,196.65) rotate(29.9)" width="9.74" height="5.20" rx="2.28"/>
<ellipse fill="#111111" cx="0.00" cy="0.00" transform="translate(188.11,196.85) rotate(-31.2)" rx="5.15" ry="2.87"/>
<path fill="#fcfcfc" d="
  M 65.13 193.80
  C 66.84 194.44 70.20 196.13 70.00 198.25
  Q 67.76 221.76 69.94 245.25
  C 70.23 248.41 68.43 251.90 64.89 250.88
  Q 63.50 250.47 61.20 248.37
  Q 48.16 236.49 36.92 222.96
  A 0.78 0.78 0.0 0 1 36.91 221.97
  Q 49.18 206.63 64.18 193.96
  Q 64.61 193.60 65.13 193.80
  Z"
/>
<path fill="#fcfcfc" d="
  M 217.11 195.80
  L 221.61 193.74
  A 0.69 0.67 51.6 0 1 222.34 193.83
  Q 237.53 206.34 249.62 221.87
  A 0.95 0.94 -44.2 0 1 249.60 223.06
  Q 237.62 237.31 223.87 249.87
  C 221.76 251.80 217.99 251.21 216.99 248.40
  Q 216.61 247.33 216.79 245.06
  Q 218.70 220.83 216.65 196.60
  Q 216.60 196.03 217.11 195.80
  Z"
/>
<rect fill="#111111" x="-4.86" y="-2.64" transform="translate(118.83,208.53) rotate(30.5)" width="9.72" height="5.28" rx="2.44"/>
<ellipse fill="#111111" cx="0.00" cy="0.00" transform="translate(166.74,209.10) rotate(-31.9)" rx="5.11" ry="2.87"/>
<path fill="#111111" d="
  M 156.85 222.26
  A 13.56 13.56 0.0 0 1 143.29 235.82
  A 13.56 13.56 0.0 0 1 129.73 222.26
  A 13.56 13.56 0.0 0 1 143.29 208.70
  A 13.56 13.56 0.0 0 1 156.85 222.26
  Z
  M 152.02 222.35
  A 8.72 8.72 0.0 0 0 143.30 213.63
  A 8.72 8.72 0.0 0 0 134.58 222.35
  A 8.72 8.72 0.0 0 0 143.30 231.07
  A 8.72 8.72 0.0 0 0 152.02 222.35
  Z"
/>
<circle fill="#fcfcfc" cx="143.30" cy="222.35" r="8.72"/>
<path fill="#fcfcfc" d="
  M 84.40 313.81
  C 63.74 317.31 37.36 314.75 21.82 298.93
  C 2.48 279.24 18.76 244.68 33.07 227.25
  A 0.65 0.64 44.8 0 1 34.06 227.25
  Q 46.33 242.02 61.08 254.33
  A 1.71 1.71 0.0 0 1 61.60 256.18
  C 58.01 266.73 64.04 272.53 73.29 275.09
  Q 73.77 275.22 73.86 275.71
  Q 77.62 294.97 84.70 313.27
  A 0.40 0.39 74.5 0 1 84.40 313.81
  Z"
/>
<path fill="#fcfcfc" d="
  M 263.77 299.76
  C 249.09 314.62 222.02 317.37 202.68 313.95
  A 0.82 0.81 -74.8 0 1 202.06 312.86
  Q 208.72 294.89 212.63 276.13
  A 1.39 1.38 6.3 0 1 214.01 275.03
  C 223.98 275.21 227.41 263.79 224.98 255.78
  A 0.95 0.94 -28.8 0 1 225.27 254.80
  Q 240.10 242.27 252.67 227.47
  A 0.54 0.54 0.0 0 1 253.50 227.48
  C 268.29 245.53 283.65 279.65 263.77 299.76
  Z"
/>
<ellipse fill="#111111" cx="0.00" cy="0.00" transform="translate(166.96,235.52) rotate(30.5)" rx="5.10" ry="2.95"/>
<rect fill="#111111" x="-4.93" y="-2.59" transform="translate(118.87,236.40) rotate(-29.6)" width="9.86" height="5.18" rx="2.30"/>
<path fill="#111111" d="
  M 1016.17 394.08
  L 929.93 288.35
  A 0.72 0.72 0.0 0 1 929.96 287.41
  L 970.71 243.15
  A 0.72 0.72 0.0 0 1 971.80 243.20
  L 1089.29 393.16
  A 0.72 0.72 0.0 0 1 1088.72 394.32
  L 1016.73 394.34
  A 0.72 0.72 0.0 0 1 1016.17 394.08
  Z"
/>
<ellipse fill="#111111" cx="0.00" cy="0.00" transform="translate(188.31,247.56) rotate(32.9)" rx="5.25" ry="2.86"/>
<rect fill="#111111" x="-4.90" y="-2.60" transform="translate(97.57,248.31) rotate(-31.5)" width="9.80" height="5.20" rx="2.33"/>
<rect fill="#111111" x="-2.48" y="-4.93" transform="translate(143.34,249.39) rotate(0.1)" width="4.96" height="9.86" rx="2.32"/>
<circle fill="#fcfcfc" cx="73.81" cy="261.45" r="8.58"/>
<circle fill="#fcfcfc" cx="212.77" cy="261.47" r="8.57"/>
<rect fill="#111111" x="-2.47" y="-4.78" transform="translate(143.34,273.97) rotate(-1.9)" width="4.94" height="9.56" rx="1.92"/>
<path fill="#fcfcfc" d="
  M 121.56 293.92
  C 125.38 295.72 132.70 297.70 129.38 303.55
  Q 129.12 304.01 128.61 304.20
  Q 110.05 310.93 90.47 313.37
  A 0.80 0.79 -13.8 0 1 89.62 312.86
  Q 82.88 295.32 79.01 276.74
  C 78.05 272.13 82.54 270.71 85.89 273.08
  Q 103.14 285.28 121.56 293.92
  Z"
/>
<path fill="#fcfcfc" d="
  M 161.68 295.67
  Q 182.30 286.60 202.88 271.79
  A 0.87 0.85 42.7 0 1 203.83 271.76
  L 207.48 274.02
  A 1.07 1.05 21.8 0 1 207.96 275.12
  Q 204.26 294.49 197.11 312.86
  A 1.09 1.08 -74.7 0 1 195.93 313.54
  Q 177.11 310.51 159.23 304.56
  Q 156.07 303.51 156.16 300.76
  C 156.25 297.66 159.19 296.76 161.68 295.67
  Z"
/>
<circle fill="#fcfcfc" cx="143.30" cy="301.21" r="8.59"/>
<path fill="#fcfcfc" d="
  M 194.21 320.37
  C 184.03 342.75 159.33 373.88 130.80 362.44
  C 112.84 355.23 99.46 336.09 92.43 318.54
  A 0.68 0.67 -14.8 0 1 92.97 317.62
  Q 112.30 314.82 130.65 308.10
  A 1.02 1.01 -34.9 0 1 131.63 308.27
  C 133.24 309.58 134.45 311.37 136.05 312.33
  Q 144.11 317.18 151.73 311.67
  C 152.89 310.83 153.97 309.27 155.26 308.18
  Q 155.66 307.84 156.15 308.03
  Q 174.64 314.99 194.22 317.63
  A 0.77 0.76 -79.5 0 1 194.86 318.57
  Q 194.64 319.44 194.21 320.37
  Z"
/>
</svg>
