<?xml version="1.0" encoding="UTF-8" standalone="no"?>
<!DOCTYPE svg PUBLIC "-//W3C//DTD SVG 1.1//EN" "http://www.w3.org/Graphics/SVG/1.1/DTD/svg11.dtd">
<svg xmlns="http://www.w3.org/2000/svg" version="1.1" viewBox="0.00 0.00 169.00 169.00">
<g stroke-width="2.00" fill="none" stroke-linecap="butt">
<path stroke="#d8d7d8" vector-effect="non-scaling-stroke" d="
  M 2.56 68.88
  Q 1.14 71.48 1.98 72.85"
/>
<path stroke="#808080" vector-effect="non-scaling-stroke" d="
  M 1.98 72.85
  Q -0.34 88.96 3.17 103.74
  C 11.77 139.96 43.58 166.59 81.03 168.04
  C 110.30 169.18 138.94 154.14 154.46 129.32
  C 171.65 101.82 171.87 64.81 152.62 37.62
  C 123.03 -4.13 64.87 -10.45 27.31 24.07
  Q 8.09 41.72 2.56 68.88"
/>
<path stroke="#595859" vector-effect="non-scaling-stroke" d="
  M 1.98 72.85
  Q 2.79 70.81 2.56 68.88"
/>
<path stroke="#595859" vector-effect="non-scaling-stroke" d="
  M 26.55 29.31
  Q 24.38 30.90 23.21 33.10"
/>
<path stroke="#808080" vector-effect="non-scaling-stroke" d="
  M 23.21 33.10
  L 22.81 33.50"
/>
<path stroke="#595859" vector-effect="non-scaling-stroke" d="
  M 22.81 33.50
  Q 17.69 38.38 15.14 44.81"
/>
<path stroke="#808080" vector-effect="non-scaling-stroke" d="
  M 15.14 44.81
  Q 8.70 55.09 7.10 63.25
  Q 6.48 66.35 6.02 67.52"
/>
<path stroke="#595859" vector-effect="non-scaling-stroke" d="
  M 6.02 67.52
  Q 4.35 72.36 4.75 77.54"
/>
<path stroke="#808080" vector-effect="non-scaling-stroke" d="
  M 4.75 77.54
  Q 4.61 78.32 4.83 78.46"
/>
<path stroke="#595859" vector-effect="non-scaling-stroke" d="
  M 4.83 78.46
  Q 4.67 78.48 4.53 78.53
  Q 4.14 78.66 4.06 79.07
  Q 2.85 85.64 4.74 92.05"
/>
<path stroke="#808080" vector-effect="non-scaling-stroke" d="
  M 4.74 92.05
  L 4.93 94.71"
/>
<path stroke="#595859" vector-effect="non-scaling-stroke" d="
  M 4.93 94.71
  L 5.85 101.32"
/>
<path stroke="#808080" vector-effect="non-scaling-stroke" d="
  M 5.85 101.32
  C 11.46 129.10 32.32 152.13 59.09 160.91
  C 114.34 179.03 169.55 134.13 163.66 76.50
  C 160.78 48.41 142.40 23.06 116.65 11.92
  Q 79.58 -4.10 43.63 15.92
  C 37.41 19.38 31.86 24.41 26.55 29.31"
/>
<path stroke="#d8d7d8" vector-effect="non-scaling-stroke" d="
  M 5.85 101.32
  Q 6.19 97.71 4.93 94.71"
/>
<path stroke="#d8d7d8" vector-effect="non-scaling-stroke" d="
  M 4.74 92.05
  L 4.83 78.46"
/>
<path stroke="#d8d7d8" vector-effect="non-scaling-stroke" d="
  M 4.75 77.54
  Q 6.17 72.49 6.02 67.52"
/>
<path stroke="#d8d7d8" vector-effect="non-scaling-stroke" d="
  M 15.14 44.81
  L 22.81 33.50"
/>
<path stroke="#d8d7d8" vector-effect="non-scaling-stroke" d="
  M 23.21 33.10
  Q 25.53 32.31 26.55 29.31"
/>
<path stroke="#d8d7d8" vector-effect="non-scaling-stroke" d="
  M 28.20 33.22
  Q 23.34 37.10 18.65 44.96
  Q 3.33 70.60 8.89 98.51"
/>
<path stroke="#808080" vector-effect="non-scaling-stroke" d="
  M 8.89 98.51
  Q 12.39 113.91 20.15 126.22"
/>
<path stroke="#d8d7d8" vector-effect="non-scaling-stroke" d="
  M 20.15 126.22
  Q 20.08 128.59 22.83 130.03"
/>
<path stroke="#808080" vector-effect="non-scaling-stroke" d="
  M 22.83 130.03
  L 28.28 136.66"
/>
<path stroke="#d8d7d8" vector-effect="non-scaling-stroke" d="
  M 28.28 136.66
  Q 30.00 140.47 34.75 142.88"
/>
<path stroke="#808080" vector-effect="non-scaling-stroke" d="
  M 34.75 142.88
  L 37.93 145.52"
/>
<path stroke="#d8d7d8" vector-effect="non-scaling-stroke" d="
  M 37.93 145.52
  Q 39.05 147.30 41.03 147.82"
/>
<path stroke="#808080" vector-effect="non-scaling-stroke" d="
  M 41.03 147.82
  Q 41.09 147.82 41.14 147.82"
/>
<path stroke="#d8d7d8" vector-effect="non-scaling-stroke" d="
  M 41.14 147.82
  Q 42.03 149.38 44.02 149.71"
/>
<path stroke="#808080" vector-effect="non-scaling-stroke" d="
  M 44.02 149.71
  C 85.83 174.83 138.10 156.65 155.43 111.51
  C 161.00 97.02 162.00 80.52 157.98 65.76
  C 142.31 8.16 69.49 -11.71 28.20 33.22"
/>
<path stroke="#595859" vector-effect="non-scaling-stroke" d="
  M 44.02 149.71
  Q 42.80 148.41 41.14 147.82"
/>
<path stroke="#595859" vector-effect="non-scaling-stroke" d="
  M 41.03 147.82
  Q 39.77 146.09 37.93 145.52"
/>
<path stroke="#595859" vector-effect="non-scaling-stroke" d="
  M 34.75 142.88
  L 28.28 136.66"
/>
<path stroke="#595859" vector-effect="non-scaling-stroke" d="
  M 22.83 130.03
  L 20.15 126.22"
/>
<path stroke="#595859" vector-effect="non-scaling-stroke" d="
  M 8.89 98.51
  Q 9.00 93.12 8.26 87.63
  C 7.70 83.47 8.50 80.15 8.90 76.11
  Q 9.45 70.56 10.19 67.51
  Q 14.83 48.50 28.20 33.22"
/>
<path stroke="#808080" vector-effect="non-scaling-stroke" d="
  M 74.98 68.59
  C 77.23 73.10 75.64 78.65 71.31 81.12
  Q 68.79 82.55 62.99 82.55
  Q 48.74 82.53 34.50 82.58
  C 30.78 82.60 30.92 87.25 34.25 87.25
  Q 46.36 87.28 58.47 87.26
  Q 65.69 87.25 68.41 88.27
  C 77.74 91.76 76.09 101.18 76.26 109.40
  A 1.76 1.75 89.3 0 0 78.01 111.12
  Q 80.32 111.12 80.71 109.51
  Q 81.33 106.89 80.65 99.03
  C 80.13 93.06 78.33 89.24 73.63 85.96
  Q 73.16 85.63 73.63 85.30
  Q 82.91 78.63 80.12 68.38
  C 79.02 64.35 76.19 61.47 72.49 59.81
  Q 69.76 58.60 64.09 58.56
  Q 49.18 58.47 33.93 58.59
  A 2.18 2.17 -79.8 0 0 31.91 60.00
  C 31.08 62.23 33.06 63.01 34.89 63.02
  Q 49.82 63.07 64.74 63.00
  Q 72.17 62.96 74.98 68.59"
/>
<path stroke="#595859" vector-effect="non-scaling-stroke" d="
  M 92.07 83.21
  Q 92.94 71.22 92.08 59.42"
/>
<path stroke="#808080" vector-effect="non-scaling-stroke" d="
  M 92.08 59.42
  Q 89.57 58.06 87.85 59.31
  Q 87.49 59.58 87.49 60.02
  L 87.47 109.27
  A 1.92 1.92 0.0 0 0 89.70 111.16
  Q 92.25 110.74 92.24 108.50
  Q 92.14 95.86 92.07 83.21"
/>
<path stroke="#d8d7d8" vector-effect="non-scaling-stroke" d="
  M 92.08 59.42
  Q 91.08 71.29 92.07 83.21"
/>
<path stroke="#808080" vector-effect="non-scaling-stroke" d="
  M 128.49 84.46
  C 137.49 78.45 136.63 70.25 136.51 60.42
  Q 136.50 58.91 135.00 58.74
  C 132.63 58.47 131.81 59.41 131.81 61.73
  C 131.80 69.32 133.12 77.03 125.03 81.09
  Q 122.42 82.39 117.22 82.50
  Q 109.23 82.67 101.25 82.65
  C 97.60 82.64 97.47 87.18 101.72 87.22
  Q 108.17 87.28 114.63 87.27
  Q 122.06 87.27 125.14 88.72
  C 133.42 92.59 131.81 101.68 131.80 109.29
  Q 131.80 109.77 132.13 110.11
  Q 133.96 111.99 135.97 110.44
  Q 136.36 110.15 136.39 109.66
  C 136.97 98.90 136.95 91.05 128.49 85.16
  Q 127.98 84.80 128.49 84.46"
/>
</g>
<path fill="#ffffff" d="
  M 76.93 0.00
  L 92.60 0.00
  Q 133.41 5.19 155.67 38.53
  Q 162.87 49.31 166.46 62.81
  C 166.83 64.23 166.98 66.52 167.84 68.32
  Q 168.05 68.78 168.01 69.28
  Q 167.75 72.25 169.00 74.88
  L 169.00 94.24
  Q 167.66 96.76 168.00 99.72
  Q 168.06 100.21 167.86 100.67
  Q 167.45 101.59 167.02 103.76
  C 165.17 113.11 160.67 122.99 155.15 131.14
  Q 133.14 163.63 92.51 169.00
  L 77.16 169.00
  Q 39.08 164.30 16.86 134.90
  Q 8.90 124.37 4.32 110.68
  C 3.18 107.29 2.43 103.50 1.56 99.84
  C 0.86 96.90 1.35 93.55 0.00 90.36
  L 0.00 78.29
  Q 1.52 75.12 0.95 71.28
  A 1.43 1.43 0.0 0 1 1.18 70.25
  Q 2.45 68.37 1.97 66.05
  Q 1.86 65.54 2.25 65.19
  Q 3.29 64.24 3.08 62.76
  Q 3.02 62.27 3.19 61.81
  Q 4.26 58.93 5.21 56.03
  Q 6.36 52.56 7.29 50.53
  Q 23.61 15.13 60.78 3.42
  Q 63.89 2.44 68.82 1.57
  Q 72.86 0.85 76.93 0.00
  Z
  M 2.56 68.88
  Q 1.14 71.48 1.98 72.85
  Q -0.34 88.96 3.17 103.74
  C 11.77 139.96 43.58 166.59 81.03 168.04
  C 110.30 169.18 138.94 154.14 154.46 129.32
  C 171.65 101.82 171.87 64.81 152.62 37.62
  C 123.03 -4.13 64.87 -10.45 27.31 24.07
  Q 8.09 41.72 2.56 68.88
  Z"
/>
<path fill="#010101" d="
  M 1.98 72.85
  Q 2.79 70.81 2.56 68.88
  Q 8.09 41.72 27.31 24.07
  C 64.87 -10.45 123.03 -4.13 152.62 37.62
  C 171.87 64.81 171.65 101.82 154.46 129.32
  C 138.94 154.14 110.30 169.18 81.03 168.04
  C 43.58 166.59 11.77 139.96 3.17 103.74
  Q -0.34 88.96 1.98 72.85
  Z
  M 26.55 29.31
  Q 24.38 30.90 23.21 33.10
  L 22.81 33.50
  Q 17.69 38.38 15.14 44.81
  Q 8.70 55.09 7.10 63.25
  Q 6.48 66.35 6.02 67.52
  Q 4.35 72.36 4.75 77.54
  Q 4.61 78.32 4.83 78.46
  Q 4.67 78.48 4.53 78.53
  Q 4.14 78.66 4.06 79.07
  Q 2.85 85.64 4.74 92.05
  L 4.93 94.71
  L 5.85 101.32
  C 11.46 129.10 32.32 152.13 59.09 160.91
  C 114.34 179.03 169.55 134.13 163.66 76.50
  C 160.78 48.41 142.40 23.06 116.65 11.92
  Q 79.58 -4.10 43.63 15.92
  C 37.41 19.38 31.86 24.41 26.55 29.31
  Z"
/>
<path fill="#ffffff" d="
  M 5.85 101.32
  Q 6.19 97.71 4.93 94.71
  L 4.74 92.05
  L 4.83 78.46
  Q 4.61 78.32 4.75 77.54
  Q 6.17 72.49 6.02 67.52
  Q 6.48 66.35 7.10 63.25
  Q 8.70 55.09 15.14 44.81
  L 22.81 33.50
  L 23.21 33.10
  Q 25.53 32.31 26.55 29.31
  C 31.86 24.41 37.41 19.38 43.63 15.92
  Q 79.58 -4.10 116.65 11.92
  C 142.40 23.06 160.78 48.41 163.66 76.50
  C 169.55 134.13 114.34 179.03 59.09 160.91
  C 32.32 152.13 11.46 129.10 5.85 101.32
  Z
  M 28.20 33.22
  Q 23.34 37.10 18.65 44.96
  Q 3.33 70.60 8.89 98.51
  Q 12.39 113.91 20.15 126.22
  Q 20.08 128.59 22.83 130.03
  L 28.28 136.66
  Q 30.00 140.47 34.75 142.88
  L 37.93 145.52
  Q 39.05 147.30 41.03 147.82
  Q 41.09 147.82 41.14 147.82
  Q 42.03 149.38 44.02 149.71
  C 85.83 174.83 138.10 156.65 155.43 111.51
  C 161.00 97.02 162.00 80.52 157.98 65.76
  C 142.31 8.16 69.49 -11.71 28.20 33.22
  Z"
/>
<path fill="#010101" d="
  M 44.02 149.71
  Q 42.80 148.41 41.14 147.82
  Q 41.09 147.82 41.03 147.82
  Q 39.77 146.09 37.93 145.52
  L 34.75 142.88
  L 28.28 136.66
  L 22.83 130.03
  L 20.15 126.22
  Q 12.39 113.91 8.89 98.51
  Q 9.00 93.12 8.26 87.63
  C 7.70 83.47 8.50 80.15 8.90 76.11
  Q 9.45 70.56 10.19 67.51
  Q 14.83 48.50 28.20 33.22
  C 69.49 -11.71 142.31 8.16 157.98 65.76
  C 162.00 80.52 161.00 97.02 155.43 111.51
  C 138.10 156.65 85.83 174.83 44.02 149.71
  Z
  M 74.98 68.59
  C 77.23 73.10 75.64 78.65 71.31 81.12
  Q 68.79 82.55 62.99 82.55
  Q 48.74 82.53 34.50 82.58
  C 30.78 82.60 30.92 87.25 34.25 87.25
  Q 46.36 87.28 58.47 87.26
  Q 65.69 87.25 68.41 88.27
  C 77.74 91.76 76.09 101.18 76.26 109.40
  A 1.76 1.75 89.3 0 0 78.01 111.12
  Q 80.32 111.12 80.71 109.51
  Q 81.33 106.89 80.65 99.03
  C 80.13 93.06 78.33 89.24 73.63 85.96
  Q 73.16 85.63 73.63 85.30
  Q 82.91 78.63 80.12 68.38
  C 79.02 64.35 76.19 61.47 72.49 59.81
  Q 69.76 58.60 64.09 58.56
  Q 49.18 58.47 33.93 58.59
  A 2.18 2.17 -79.8 0 0 31.91 60.00
  C 31.08 62.23 33.06 63.01 34.89 63.02
  Q 49.82 63.07 64.74 63.00
  Q 72.17 62.96 74.98 68.59
  Z
  M 92.07 83.21
  Q 92.94 71.22 92.08 59.42
  Q 89.57 58.06 87.85 59.31
  Q 87.49 59.58 87.49 60.02
  L 87.47 109.27
  A 1.92 1.92 0.0 0 0 89.70 111.16
  Q 92.25 110.74 92.24 108.50
  Q 92.14 95.86 92.07 83.21
  Z
  M 128.49 84.46
  C 137.49 78.45 136.63 70.25 136.51 60.42
  Q 136.50 58.91 135.00 58.74
  C 132.63 58.47 131.81 59.41 131.81 61.73
  C 131.80 69.32 133.12 77.03 125.03 81.09
  Q 122.42 82.39 117.22 82.50
  Q 109.23 82.67 101.25 82.65
  C 97.60 82.64 97.47 87.18 101.72 87.22
  Q 108.17 87.28 114.63 87.27
  Q 122.06 87.27 125.14 88.72
  C 133.42 92.59 131.81 101.68 131.80 109.29
  Q 131.80 109.77 132.13 110.11
  Q 133.96 111.99 135.97 110.44
  Q 136.36 110.15 136.39 109.66
  C 136.97 98.90 136.95 91.05 128.49 85.16
  Q 127.98 84.80 128.49 84.46
  Z"
/>
<path fill="#b0aeb0" d="
  M 26.55 29.31
  Q 25.53 32.31 23.21 33.10
  Q 24.38 30.90 26.55 29.31
  Z"
/>
<path fill="#b0aeb0" d="
  M 28.20 33.22
  Q 14.83 48.50 10.19 67.51
  Q 9.45 70.56 8.90 76.11
  C 8.50 80.15 7.70 83.47 8.26 87.63
  Q 9.00 93.12 8.89 98.51
  Q 3.33 70.60 18.65 44.96
  Q 23.34 37.10 28.20 33.22
  Z"
/>
<path fill="#b0aeb0" d="
  M 22.81 33.50
  L 15.14 44.81
  Q 17.69 38.38 22.81 33.50
  Z"
/>
<path fill="#ffffff" d="
  M 74.98 68.59
  Q 72.17 62.96 64.74 63.00
  Q 49.82 63.07 34.89 63.02
  C 33.06 63.01 31.08 62.23 31.91 60.00
  A 2.18 2.17 -79.8 0 1 33.93 58.59
  Q 49.18 58.47 64.09 58.56
  Q 69.76 58.60 72.49 59.81
  C 76.19 61.47 79.02 64.35 80.12 68.38
  Q 82.91 78.63 73.63 85.30
  Q 73.16 85.63 73.63 85.96
  C 78.33 89.24 80.13 93.06 80.65 99.03
  Q 81.33 106.89 80.71 109.51
  Q 80.32 111.12 78.01 111.12
  A 1.76 1.75 89.3 0 1 76.26 109.40
  C 76.09 101.18 77.74 91.76 68.41 88.27
  Q 65.69 87.25 58.47 87.26
  Q 46.36 87.28 34.25 87.25
  C 30.92 87.25 30.78 82.60 34.50 82.58
  Q 48.74 82.53 62.99 82.55
  Q 68.79 82.55 71.31 81.12
  C 75.64 78.65 77.23 73.10 74.98 68.59
  Z"
/>
<path fill="#ffffff" d="
  M 92.08 59.42
  Q 91.08 71.29 92.07 83.21
  Q 92.14 95.86 92.24 108.50
  Q 92.25 110.74 89.70 111.16
  A 1.92 1.92 0.0 0 1 87.47 109.27
  L 87.49 60.02
  Q 87.49 59.58 87.85 59.31
  Q 89.57 58.06 92.08 59.42
  Z"
/>
<path fill="#ffffff" d="
  M 128.49 85.16
  C 136.95 91.05 136.97 98.90 136.39 109.66
  Q 136.36 110.15 135.97 110.44
  Q 133.96 111.99 132.13 110.11
  Q 131.80 109.77 131.80 109.29
  C 131.81 101.68 133.42 92.59 125.14 88.72
  Q 122.06 87.27 114.63 87.27
  Q 108.17 87.28 101.72 87.22
  C 97.47 87.18 97.60 82.64 101.25 82.65
  Q 109.23 82.67 117.22 82.50
  Q 122.42 82.39 125.03 81.09
  C 133.12 77.03 131.80 69.32 131.81 61.73
  C 131.81 59.41 132.63 58.47 135.00 58.74
  Q 136.50 58.91 136.51 60.42
  C 136.63 70.25 137.49 78.45 128.49 84.46
  Q 127.98 84.80 128.49 85.16
  Z"
/>
<path fill="#b0aeb0" d="
  M 92.08 59.42
  Q 92.94 71.22 92.07 83.21
  Q 91.08 71.29 92.08 59.42
  Z"
/>
<path fill="#b0aeb0" d="
  M 6.02 67.52
  Q 6.17 72.49 4.75 77.54
  Q 4.35 72.36 6.02 67.52
  Z"
/>
<path fill="#b0aeb0" d="
  M 2.56 68.88
  Q 2.79 70.81 1.98 72.85
  Q 1.14 71.48 2.56 68.88
  Z"
/>
<path fill="#b0aeb0" d="
  M 4.83 78.46
  L 4.74 92.05
  Q 2.85 85.64 4.06 79.07
  Q 4.14 78.66 4.53 78.53
  Q 4.67 78.48 4.83 78.46
  Z"
/>
<path fill="#b0aeb0" d="
  M 4.93 94.71
  Q 6.19 97.71 5.85 101.32
  L 4.93 94.71
  Z"
/>
<path fill="#b0aeb0" d="
  M 20.15 126.22
  L 22.83 130.03
  Q 20.08 128.59 20.15 126.22
  Z"
/>
<path fill="#b0aeb0" d="
  M 28.28 136.66
  L 34.75 142.88
  Q 30.00 140.47 28.28 136.66
  Z"
/>
<path fill="#b0aeb0" d="
  M 37.93 145.52
  Q 39.77 146.09 41.03 147.82
  Q 39.05 147.30 37.93 145.52
  Z"
/>
<path fill="#b0aeb0" d="
  M 41.14 147.82
  Q 42.80 148.41 44.02 149.71
  Q 42.03 149.38 41.14 147.82
  Z"
/>
</svg>
